HIERARCHY
ROOT Hips
{
	OFFSET 0.000000 71.427986 0.000000
	CHANNELS 6 Xposition Yposition Zposition Xrotation Yrotation Zrotation
	JOINT Pelvis
	{
		OFFSET 0.000000 0.000000 0.000000
		CHANNELS 3 Xrotation Yrotation Zrotation
		JOINT LeftUpLeg
		{
			OFFSET 6.797100 -2.508499 -1.318700
			CHANNELS 3 Xrotation Yrotation Zrotation
			JOINT LeftLeg
			{
				OFFSET 0.069008 -29.241863 0.690200
				CHANNELS 3 Xrotation Yrotation Zrotation
				JOINT LeftFoot
				{
					OFFSET -0.069008 -29.568123 -0.266800
					CHANNELS 3 Xrotation Yrotation Zrotation
					JOINT LeftToeBase
					{
						OFFSET 3.145500 -8.631000 16.059900
						CHANNELS 3 Xrotation Yrotation Zrotation
						End Site
						{
							OFFSET 0.000000 18.501587 0.000000
						}
					}
				}
			}
			JOINT Left_ShortSleeve
			{
				OFFSET 0.265923 -10.480953 1.153800
				CHANNELS 3 Xrotation Yrotation Zrotation
				End Site
				{
					OFFSET 1.725763 19.823879 0.000000
				}
			}
		}
		JOINT RightUpLeg
		{
			OFFSET -6.797100 -2.508499 -1.318700
			CHANNELS 3 Xrotation Yrotation Zrotation
			JOINT RightLeg
			{
				OFFSET -0.082453 -29.241932 0.688000
				CHANNELS 3 Xrotation Yrotation Zrotation
				JOINT RightFoot
				{
					OFFSET 0.082453 -29.568058 -0.264600
					CHANNELS 3 Xrotation Yrotation Zrotation
					JOINT RightToeBase
					{
						OFFSET -3.115300 -8.682800 16.113400
						CHANNELS 3 Xrotation Yrotation Zrotation
						End Site
						{
							OFFSET 0.000000 18.567114 0.000000
						}
					}
				}
			}
			JOINT Right_ShortSleeve
			{
				OFFSET -0.265923 -10.480953 1.153800
				CHANNELS 3 Xrotation Yrotation Zrotation
				End Site
				{
					OFFSET -1.725766 19.823910 0.000000
				}
			}
		}
	}
	JOINT Spine
	{
		OFFSET 0.000000 13.368103 0.470500
		CHANNELS 3 Xrotation Yrotation Zrotation
		JOINT Spine1
		{
			OFFSET 0.147000 13.837402 0.538800
			CHANNELS 3 Xrotation Yrotation Zrotation
			JOINT Spine2
			{
				OFFSET 0.168000 16.242897 -1.435500
				CHANNELS 3 Xrotation Yrotation Zrotation
				JOINT Neck
				{
					OFFSET 0.217200 18.631500 -1.679100
					CHANNELS 3 Xrotation Yrotation Zrotation
					JOINT Head
					{
						OFFSET 0.000000 6.599396 1.385900
						CHANNELS 3 Xrotation Yrotation Zrotation
						JOINT Hat
						{
							OFFSET -0.532200 27.220596 -10.096100
							CHANNELS 3 Xrotation Yrotation Zrotation
							End Site
							{
								OFFSET 0.000000 22.029861 0.000000
							}
						}
						JOINT HairD
						{
							OFFSET -10.777400 17.437393 -1.325900
							CHANNELS 3 Xrotation Yrotation Zrotation
							JOINT HairD1
							{
								OFFSET -3.290299 -11.051193 1.062200
								CHANNELS 3 Xrotation Yrotation Zrotation
								End Site
								{
									OFFSET 0.000000 11.579437 0.000000
								}
							}
						}
						JOINT HairB
						{
							OFFSET -10.777400 17.437393 1.467900
							CHANNELS 3 Xrotation Yrotation Zrotation
							JOINT HairB1
							{
								OFFSET -1.561200 -12.956299 3.590200
								CHANNELS 3 Xrotation Yrotation Zrotation
								End Site
								{
									OFFSET 0.000000 13.534866 0.000000
								}
							}
						}
						JOINT HairA
						{
							OFFSET 9.713100 17.437393 1.467900
							CHANNELS 3 Xrotation Yrotation Zrotation
							JOINT HairA1
							{
								OFFSET 1.561200 -12.956299 3.590200
								CHANNELS 3 Xrotation Yrotation Zrotation
								End Site
								{
									OFFSET 0.000000 13.534866 0.000000
								}
							}
						}
						JOINT HairC
						{
							OFFSET 9.713100 17.437393 -1.325900
							CHANNELS 3 Xrotation Yrotation Zrotation
							JOINT HairC1
							{
								OFFSET 3.290300 -11.051193 1.062200
								CHANNELS 3 Xrotation Yrotation Zrotation
								End Site
								{
									OFFSET 0.000000 11.579437 0.000000
								}
							}
						}
					}
				}
				JOINT LeftShoulder
				{
					OFFSET 5.101800 15.108002 -2.763700
					CHANNELS 3 Xrotation Yrotation Zrotation
					JOINT LeftArm
					{
						OFFSET 9.825497 2.506317 -1.597400
						CHANNELS 3 Xrotation Yrotation Zrotation
						JOINT LeftForeArm
						{
							OFFSET 21.966244 0.000000 0.000000
							CHANNELS 3 Xrotation Yrotation Zrotation
							JOINT LeftHand
							{
								OFFSET 33.879036 0.000000 0.000000
								CHANNELS 3 Xrotation Yrotation Zrotation
								JOINT LeftHandThumb1
								{
									OFFSET 6.715286 -2.359680 3.363841
									CHANNELS 3 Xrotation Yrotation Zrotation
									JOINT LeftHandThumb2
									{
										OFFSET 2.507072 -1.447464 1.447461
										CHANNELS 3 Xrotation Yrotation Zrotation
										JOINT LeftHandThumb3
										{
											OFFSET 2.898338 -1.673355 1.673357
											CHANNELS 3 Xrotation Yrotation Zrotation
											End Site
											{
												OFFSET -0.295959 3.727692 -0.131651
											}
										}
									}
								}
								JOINT LeftHandIndex1
								{
									OFFSET 14.190811 -0.254547 3.840278
									CHANNELS 3 Xrotation Yrotation Zrotation
									JOINT LeftHandIndex2
									{
										OFFSET 3.551727 0.000000 -0.000000
										CHANNELS 3 Xrotation Yrotation Zrotation
										JOINT LeftHandIndex3
										{
											OFFSET 2.894196 0.000000 0.000000
											CHANNELS 3 Xrotation Yrotation Zrotation
											End Site
											{
												OFFSET -1.000603 2.690872 0.366626
											}
										}
									}
								}
								JOINT LeftHandMiddle1
								{
									OFFSET 13.776489 0.000000 0.000000
									CHANNELS 3 Xrotation Yrotation Zrotation
									JOINT LeftHandMiddle2
									{
										OFFSET 3.438232 0.000000 0.000000
										CHANNELS 3 Xrotation Yrotation Zrotation
										JOINT LeftHandMiddle3
										{
											OFFSET 3.691551 0.000000 0.000000
											CHANNELS 3 Xrotation Yrotation Zrotation
											End Site
											{
												OFFSET -1.082298 3.499527 0.457670
											}
										}
									}
								}
								JOINT LeftHandRing1
								{
									OFFSET 13.966164 -0.268127 -3.067488
									CHANNELS 3 Xrotation Yrotation Zrotation
									JOINT LeftHandRing2
									{
										OFFSET 3.162567 0.000000 0.000000
										CHANNELS 3 Xrotation Yrotation Zrotation
										JOINT LeftHandRing3
										{
											OFFSET 3.324348 0.000000 0.000000
											CHANNELS 3 Xrotation Yrotation Zrotation
											End Site
											{
												OFFSET -0.861900 3.184998 0.405154
											}
										}
									}
								}
								JOINT LeftHandPinky1
								{
									OFFSET 13.131393 -0.168503 -5.746925
									CHANNELS 3 Xrotation Yrotation Zrotation
									JOINT LeftHandPinky2
									{
										OFFSET 2.849182 0.000000 0.000000
										CHANNELS 3 Xrotation Yrotation Zrotation
										JOINT LeftHandPinky3
										{
											OFFSET 2.805038 0.000000 0.000000
											CHANNELS 3 Xrotation Yrotation Zrotation
											End Site
											{
												OFFSET -0.882500 2.642609 0.325652
											}
										}
									}
								}
							}
							JOINT Left_Sleeve
							{
								OFFSET 6.592125 -0.646545 0.805568
								CHANNELS 3 Xrotation Yrotation Zrotation
								End Site
								{
									OFFSET -0.000179 20.275787 -0.000000
								}
							}
						}
					}
				}
				JOINT RightShoulder
				{
					OFFSET -5.731700 15.108002 -2.763700
					CHANNELS 3 Xrotation Yrotation Zrotation
					JOINT RightArm
					{
						OFFSET -9.825497 2.506317 -1.597400
						CHANNELS 3 Xrotation Yrotation Zrotation
						JOINT RightForeArm
						{
							OFFSET -21.966242 0.000000 0.000000
							CHANNELS 3 Xrotation Yrotation Zrotation
							JOINT RightHand
							{
								OFFSET -33.879032 0.000000 0.000000
								CHANNELS 3 Xrotation Yrotation Zrotation
								JOINT RightHandThumb1
								{
									OFFSET -6.715286 -2.359680 3.363841
									CHANNELS 3 Xrotation Yrotation Zrotation
									JOINT RightHandThumb2
									{
										OFFSET -2.507072 -1.447464 1.447461
										CHANNELS 3 Xrotation Yrotation Zrotation
										JOINT RightHandThumb3
										{
											OFFSET -2.898338 -1.673355 1.673357
											CHANNELS 3 Xrotation Yrotation Zrotation
											End Site
											{
												OFFSET 0.295959 3.727692 -0.131651
											}
										}
									}
								}
								JOINT RightHandIndex1
								{
									OFFSET -14.190811 -0.254547 3.840278
									CHANNELS 3 Xrotation Yrotation Zrotation
									JOINT RightHandIndex2
									{
										OFFSET -3.551727 0.000000 -0.000000
										CHANNELS 3 Xrotation Yrotation Zrotation
										JOINT RightHandIndex3
										{
											OFFSET -2.894196 0.000000 0.000000
											CHANNELS 3 Xrotation Yrotation Zrotation
											End Site
											{
												OFFSET 1.000603 2.690872 0.366626
											}
										}
									}
								}
								JOINT RightHandMiddle1
								{
									OFFSET -13.776489 0.000000 0.000000
									CHANNELS 3 Xrotation Yrotation Zrotation
									JOINT RightHandMiddle2
									{
										OFFSET -3.438232 0.000000 0.000000
										CHANNELS 3 Xrotation Yrotation Zrotation
										JOINT RightHandMiddle3
										{
											OFFSET -3.691551 0.000000 0.000000
											CHANNELS 3 Xrotation Yrotation Zrotation
											End Site
											{
												OFFSET 1.082298 3.499527 0.457670
											}
										}
									}
								}
								JOINT RightHandRing1
								{
									OFFSET -13.966164 -0.268127 -3.067488
									CHANNELS 3 Xrotation Yrotation Zrotation
									JOINT RightHandRing2
									{
										OFFSET -3.162567 0.000000 0.000000
										CHANNELS 3 Xrotation Yrotation Zrotation
										JOINT RightHandRing3
										{
											OFFSET -3.324348 0.000000 0.000000
											CHANNELS 3 Xrotation Yrotation Zrotation
											End Site
											{
												OFFSET 0.861900 3.184998 0.405154
											}
										}
									}
								}
								JOINT RightHandPinky1
								{
									OFFSET -13.131393 -0.168503 -5.746925
									CHANNELS 3 Xrotation Yrotation Zrotation
									JOINT RightHandPinky2
									{
										OFFSET -2.849182 0.000000 0.000000
										CHANNELS 3 Xrotation Yrotation Zrotation
										JOINT RightHandPinky3
										{
											OFFSET -2.805038 0.000000 0.000000
											CHANNELS 3 Xrotation Yrotation Zrotation
											End Site
											{
												OFFSET 0.882500 2.642609 0.325652
											}
										}
									}
								}
							}
							JOINT Right_Sleeve
							{
								OFFSET -6.592125 -0.646545 0.805568
								CHANNELS 3 Xrotation Yrotation Zrotation
								End Site
								{
									OFFSET 0.000179 20.275787 -0.000000
								}
							}
						}
					}
				}
				JOINT Bind_Right_JacketString
				{
					OFFSET -3.534800 11.969597 7.200700
					CHANNELS 3 Xrotation Yrotation Zrotation
					JOINT Bind_Right_JacketString1
					{
						OFFSET -0.319900 -6.102600 2.794100
						CHANNELS 3 Xrotation Yrotation Zrotation
						End Site
						{
							OFFSET 0.000000 6.719452 0.000000
						}
					}
				}
				JOINT Bind_Left_JacketString
				{
					OFFSET 2.904800 11.969597 7.200700
					CHANNELS 3 Xrotation Yrotation Zrotation
					JOINT Bind_Left_JacketString1
					{
						OFFSET 0.364800 -5.904503 3.186800
						CHANNELS 3 Xrotation Yrotation Zrotation
						End Site
						{
							OFFSET 0.000000 6.719513 0.000000
						}
					}
				}
				JOINT HairE
				{
					OFFSET 5.915200 17.612701 -11.592200
					CHANNELS 3 Xrotation Yrotation Zrotation
					JOINT HairE1
					{
						OFFSET 0.289200 -7.171898 -1.284500
						CHANNELS 3 Xrotation Yrotation Zrotation
						End Site
						{
							OFFSET 0.000000 7.291756 0.000000
						}
					}
				}
				JOINT HairF
				{
					OFFSET -0.864800 17.612701 -11.592200
					CHANNELS 3 Xrotation Yrotation Zrotation
					JOINT HairF1
					{
						OFFSET 0.000000 -14.087097 -2.127501
						CHANNELS 3 Xrotation Yrotation Zrotation
						End Site
						{
							OFFSET 0.000000 14.246841 0.000000
						}
					}
				}
				JOINT HairG
				{
					OFFSET -8.087700 17.612701 -11.592200
					CHANNELS 3 Xrotation Yrotation Zrotation
					JOINT HairG1
					{
						OFFSET -0.293600 -6.081398 -0.910100
						CHANNELS 3 Xrotation Yrotation Zrotation
						End Site
						{
							OFFSET 0.000000 6.156120 0.000000
						}
					}
				}
			}
		}
	}
	JOINT Pouch
	{
		OFFSET 0.000000 4.394501 10.847300
		CHANNELS 3 Xrotation Yrotation Zrotation
		End Site
		{
			OFFSET 0.000000 21.880577 0.000000
		}
	}
	JOINT Bag
	{
		OFFSET -13.229000 4.813004 -0.593300
		CHANNELS 3 Xrotation Yrotation Zrotation
		End Site
		{
			OFFSET 0.000000 21.880577 0.000000
		}
	}
	JOINT OccupyGuyFacialAnim_Joint
	{
		OFFSET 1.000000 -70.206398 -1.655000
		CHANNELS 3 Xrotation Yrotation Zrotation
		End Site
		{
			OFFSET 0.000000 21.880577 0.000000
		}
	}
}
MOTION
Frames: 4
Frame Time: 0.033333
8.961451 63.455132 60.121948 -18.367279 12.905209 2.487494 0.000000 0.000000 -0.000000 -24.545036 12.294176 4.072914 38.605302 -8.791853 -5.080726 4.745810 -5.739952 11.514509 -0.000000 0.000000 0.000000 -0.000001 -0.000000 -0.000000 -11.254463 -12.038292 -25.531988 89.101040 3.630230 -7.688342 12.335239 -0.542733 9.266936 0.000002 -0.000000 0.000001 -0.000000 -0.000001 -0.000002 9.780801 3.333975 10.187993 2.242874 0.362565 -1.000606 2.254988 0.316236 -0.996553 3.203928 0.337943 -0.845641 28.286733 -18.305851 26.280830 -0.000001 0.000000 -0.000000 -0.000001 0.000000 -0.000000 -0.000001 0.000000 0.000001 -0.000001 0.000000 0.000001 -0.000001 0.000000 0.000001 -0.000001 0.000000 0.000001 -0.000001 0.000000 0.000001 -0.000001 0.000000 -0.000000 -0.000001 0.000000 -0.000000 1.700687 -3.814777 -7.815498 -12.504467 -21.901309 -33.667027 0.000041 -109.121650 0.000016 11.860139 -12.293798 17.109783 5.711854 13.534350 -2.664442 7.474523 16.983018 2.492224 0.000001 -0.000000 0.000002 4.847332 6.709501 -62.054789 9.842944 6.213930 -115.547567 0.000003 0.000001 -0.000005 4.775223 6.600549 -65.622566 7.581319 6.845637 -95.853659 0.000002 0.000002 -0.000004 1.241665 5.729587 -76.539680 8.312245 6.731448 -102.031142 -0.000001 0.000001 -0.000002 0.593439 5.351697 -73.878523 8.296150 2.647963 -101.869546 -0.000000 -0.000002 0.000001 -0.000001 -0.000001 -0.000001 4.731635 0.794811 7.208544 -26.544277 21.145554 43.074882 0.000076 114.232674 -0.000084 -3.184811 21.983553 -26.233553 10.310205 -11.985211 1.169308 8.282892 -17.635053 -1.888590 0.000000 -0.000004 0.000001 7.368794 -8.077443 62.032133 10.531290 -5.956963 121.105292 -0.000000 0.000000 0.000000 9.493806 -8.764464 65.625974 8.827542 -6.690451 105.729088 0.000001 -0.000000 -0.000001 5.686326 -7.056334 65.546149 8.509722 -6.771347 103.017865 -0.000000 0.000001 -0.000002 1.793289 -5.175620 62.945036 8.423544 -6.790562 102.288046 -0.000000 0.000002 0.000001 0.000002 -0.000001 0.000002 -0.000000 -0.000000 0.000000 -0.000000 0.000001 0.000000 -0.000000 -0.000000 0.000000 -0.000000 -0.000000 0.000000 -0.000000 -0.000000 0.000000 -0.000000 0.000001 0.000000 -0.000000 -0.000000 0.000000 -0.000000 -0.000000 0.000000 -0.000000 -0.000000 0.000000 -0.000000 0.000001 0.000000 0.000000 0.000000 -0.000000 0.000000 0.000000 -0.000000 0.000000 0.000000 -0.000000 
8.199217 63.471657 59.520866 -17.041590 9.615026 1.695183 -0.000002 0.000000 -0.000000 -25.994202 12.109902 4.989568 37.567587 -9.097954 -4.179389 5.303142 -2.861442 9.118136 0.000000 -0.000000 -0.000000 0.000004 -0.000001 0.000000 -3.249500 -14.694047 -24.850515 78.515162 2.752125 -8.194083 2.585704 -0.985943 5.052290 0.000000 0.000000 -0.000001 -0.000000 0.000000 -0.000004 7.973703 5.656902 10.086171 2.778037 0.733575 -1.058739 2.804281 0.678146 -1.044477 3.029425 0.799265 -1.398848 27.130782 -16.850457 24.246830 -0.000002 -0.000000 0.000001 -0.000002 -0.000000 0.000001 -0.000002 -0.000000 0.000001 -0.000002 -0.000000 -0.000000 -0.000002 -0.000000 -0.000000 -0.000002 -0.000000 -0.000000 -0.000002 -0.000000 -0.000000 -0.000002 -0.000000 0.000001 -0.000002 -0.000000 0.000001 1.232780 -2.655805 -7.625622 -12.535999 -17.802490 -31.604914 0.000036 -112.167081 0.000049 11.599156 -10.542641 15.770186 5.711860 13.534346 -2.664441 7.474529 16.983018 2.492226 -0.000000 0.000001 -0.000002 4.847334 6.709499 -62.054789 9.842942 6.213929 -115.547581 -0.000001 -0.000000 0.000001 4.775231 6.600556 -65.622559 7.581318 6.845642 -95.853666 0.000003 0.000001 0.000003 1.241669 5.729589 -76.539680 8.312241 6.731460 -102.031142 0.000005 0.000001 -0.000001 0.593438 5.351694 -73.878523 8.296152 2.647961 -101.869546 -0.000003 -0.000001 -0.000003 0.000001 0.000001 -0.000001 5.300994 2.479894 7.171285 -32.922222 24.759968 44.346192 0.000122 113.595834 -0.000128 -4.103314 20.645609 -26.447857 10.310206 -11.985206 1.169308 8.282892 -17.635057 -1.888593 0.000001 -0.000003 0.000000 7.368795 -8.077443 62.032133 10.531290 -5.956966 121.105292 -0.000000 -0.000000 -0.000002 9.493806 -8.764465 65.625974 8.827542 -6.690450 105.729081 0.000000 0.000000 -0.000003 5.686325 -7.056334 65.546149 8.509723 -6.771349 103.017872 0.000000 0.000000 0.000000 1.793289 -5.175620 62.945036 8.423546 -6.790560 102.288039 -0.000000 0.000001 0.000001 0.000002 0.000000 0.000004 0.000000 0.000002 -0.000000 -0.000000 0.000002 0.000001 0.000000 0.000002 -0.000000 0.000000 0.000002 -0.000000 0.000000 0.000002 -0.000000 -0.000000 0.000002 0.000000 0.000000 0.000002 -0.000000 0.000000 0.000002 -0.000000 0.000000 0.000002 -0.000000 -0.000000 0.000002 0.000000 -0.000002 0.000000 -0.000000 -0.000002 0.000000 -0.000000 -0.000002 0.000000 -0.000000 
6.996283 63.060966 58.161442 -15.833977 4.890778 1.157146 0.000000 -0.000000 -0.000000 -28.263369 11.851995 6.314595 37.055777 -8.169489 -2.962770 6.366605 0.082952 5.890123 -0.000000 0.000001 0.000000 -0.000001 -0.000001 0.000000 0.722050 -15.980911 -25.764677 70.923551 3.664943 -8.692480 -9.734946 -1.340662 5.468131 0.000001 -0.000000 0.000001 0.000000 0.000000 0.000001 7.879385 7.713766 9.254876 2.871869 1.037406 -0.947463 2.905939 0.982319 -0.926244 2.833664 1.465895 -2.169853 25.688883 -14.677481 21.559026 -0.000002 -0.000001 -0.000003 -0.000002 -0.000001 -0.000003 -0.000002 -0.000001 -0.000003 -0.000002 -0.000001 -0.000003 -0.000002 -0.000001 -0.000001 -0.000002 -0.000001 -0.000003 -0.000002 -0.000001 -0.000001 -0.000002 -0.000001 -0.000003 -0.000002 -0.000001 -0.000003 0.861092 -1.421165 -7.494231 -13.257252 -12.612025 -30.119615 0.000054 -115.811403 0.000061 10.952135 -8.437758 14.254648 5.711858 13.534349 -2.664442 7.474526 16.983013 2.492226 0.000000 0.000000 -0.000004 4.847337 6.709501 -62.054782 9.842943 6.213929 -115.547567 -0.000001 0.000001 0.000000 4.775230 6.600556 -65.622566 7.581316 6.845643 -95.853666 0.000003 0.000002 -0.000003 1.241672 5.729592 -76.539687 8.312243 6.731456 -102.031142 0.000001 -0.000001 -0.000001 0.593442 5.351697 -73.878523 8.296149 2.647958 -101.869546 -0.000002 -0.000001 -0.000001 0.000001 -0.000002 0.000002 5.842852 4.252414 6.957842 -39.508297 29.392018 46.843090 0.000035 112.143606 -0.000043 -5.043671 19.821369 -26.660462 10.310205 -11.985210 1.169309 8.282891 -17.635055 -1.888591 -0.000000 -0.000001 0.000000 7.368797 -8.077445 62.032140 10.531290 -5.956965 121.105278 0.000001 -0.000001 0.000000 9.493806 -8.764465 65.625967 8.827542 -6.690449 105.729081 0.000001 0.000000 0.000001 5.686324 -7.056333 65.546149 8.509720 -6.771347 103.017865 -0.000001 -0.000001 -0.000001 1.793290 -5.175620 62.945029 8.423544 -6.790560 102.288039 0.000000 -0.000000 0.000000 -0.000001 -0.000001 0.000003 0.000000 0.000000 -0.000000 0.000000 -0.000001 0.000000 0.000000 0.000000 -0.000000 0.000000 0.000000 -0.000000 0.000000 0.000000 -0.000000 0.000000 -0.000001 -0.000000 0.000000 0.000000 -0.000000 0.000000 0.000000 -0.000000 0.000000 0.000000 -0.000000 0.000000 -0.000001 -0.000000 0.000000 -0.000000 -0.000000 0.000000 -0.000000 -0.000000 0.000000 -0.000000 -0.000000 
5.428587 62.571823 55.952168 -14.059325 -0.798823 0.845809 0.000000 -0.000000 -0.000000 -30.543954 11.436269 8.056515 34.520814 -3.449398 -1.678184 9.312419 0.059797 2.296353 0.000000 -0.000000 -0.000000 -0.000000 0.000000 -0.000000 1.280477 -16.337259 -26.797055 65.178351 5.351679 -8.893403 -23.538751 -2.417255 9.646140 -0.000001 0.000001 0.000000 0.000000 -0.000001 -0.000000 8.280810 9.491693 7.811985 2.734196 1.280656 -0.852602 2.771515 1.232008 -0.829708 2.747441 2.327705 -3.176216 24.166111 -11.858991 19.002556 -0.000001 -0.000001 0.000000 -0.000001 -0.000001 0.000000 -0.000001 -0.000001 -0.000000 -0.000001 -0.000001 -0.000000 -0.000001 -0.000000 -0.000000 -0.000001 -0.000001 -0.000000 -0.000001 -0.000000 -0.000000 -0.000001 -0.000001 0.000000 -0.000001 -0.000001 0.000000 0.623453 -0.402075 -7.460122 -14.522924 -7.201872 -29.025370 0.000020 -119.424300 0.000018 10.071792 -6.512289 12.853527 5.711857 13.534345 -2.664444 7.474524 16.983016 2.492227 0.000001 0.000001 -0.000001 4.847336 6.709498 -62.054782 9.842943 6.213923 -115.547567 0.000001 0.000002 0.000000 4.775229 6.600550 -65.622559 7.581320 6.845641 -95.853666 0.000001 0.000002 -0.000001 1.241672 5.729586 -76.539680 8.312242 6.731458 -102.031135 0.000001 0.000001 0.000002 0.593444 5.351697 -73.878523 8.296154 2.647954 -101.869539 -0.000004 -0.000004 -0.000001 0.000002 -0.000002 -0.000002 6.218796 5.929633 6.504656 -45.419085 33.385210 51.078948 -0.000078 110.664528 0.000065 -5.437973 19.475444 -26.824610 10.310206 -11.985209 1.169309 8.282889 -17.635052 -1.888592 -0.000001 0.000001 0.000001 7.368793 -8.077443 62.032140 10.531291 -5.956964 121.105292 0.000000 0.000000 -0.000001 9.493807 -8.764465 65.625974 8.827542 -6.690452 105.729081 0.000002 0.000000 -0.000003 5.686324 -7.056334 65.546149 8.509722 -6.771348 103.017872 -0.000000 -0.000000 -0.000001 1.793290 -5.175620 62.945029 8.423545 -6.790560 102.288046 -0.000001 -0.000000 0.000000 0.000000 0.000000 -0.000001 -0.000000 -0.000000 -0.000000 -0.000000 -0.000000 -0.000000 -0.000000 -0.000000 0.000000 -0.000000 -0.000000 0.000000 -0.000000 -0.000000 -0.000000 -0.000000 -0.000000 -0.000000 -0.000000 -0.000000 0.000000 -0.000000 -0.000000 0.000000 -0.000000 -0.000000 -0.000000 -0.000000 -0.000000 -0.000000 0.000000 -0.000000 -0.000000 0.000000 -0.000000 -0.000000 0.000000 -0.000000 -0.000000 
